<svg width="89" height="89" viewBox="0 0 89 89" fill="none" xmlns="http://www.w3.org/2000/svg">
<circle cx="44.5" cy="44.5" r="44.5" fill="white"/>
<path d="M77.4846 19H11.6016C11.2734 19 11 19.2695 11 19.6016V66.6136C11 66.9417 11.2695 67.2151 11.6016 67.2151H39.7926V74.5432H33.5738V75.7424H55.5038V74.5432H49.285V67.2151H77.476C77.8041 67.2151 78.0775 66.9456 78.0775 66.6136L78.0736 19.6016C78.0736 19.2734 77.8041 19 77.4721 19H77.4846ZM48.0936 74.543H40.992V67.2149H48.0936V74.543ZM76.8826 66.0118H12.2026V20.1998H76.8746V66.0088L76.8826 66.0118ZM19.0236 61.0313H70.0626C70.3907 61.0313 70.6641 60.7618 70.6641 60.4297V24.7817C70.6641 24.4536 70.3946 24.1802 70.0626 24.1802H19.0236C18.6954 24.1802 18.422 24.4497 18.422 24.7817V60.4297C18.422 60.7579 18.6915 61.0313 19.0236 61.0313ZM19.6212 25.3833H69.4612V59.8323H19.6212V25.3833ZM41.8942 54.0513H44.6833V55.2505H24.3553V54.0513H27.1248V49.0201H28.324V54.0513H30.5154V51.313H31.7146V54.0513H33.906V44.313H35.1052V54.0513H37.2966V36.5123H38.4958V54.0513H40.6872V32.7503H41.8864V54.0513H41.8942ZM31.0932 29.2623H23.433V28.0631H31.0932V29.2623ZM66.2022 62.9613H70.0733V64.1605H66.2022V62.9613ZM60.6319 31.1333C60.6632 31.1919 64.0616 36.813 59.1827 41.3323C58.8546 41.6331 58.5538 41.9221 58.253 42.2112C57.9444 42.5003 57.6515 42.7815 57.3624 43.0511C57.0812 43.3128 56.7921 43.5823 56.4913 43.8596C56.1827 44.1487 55.8702 44.4495 55.5304 44.7581C55.2218 45.0471 54.9601 45.3362 54.7218 45.637H57.7609V46.8362H53.9406C53.7296 47.2581 53.5812 47.6643 53.4718 48.0745H59.0616V49.2737H53.2725C53.253 49.6839 53.2608 50.0823 53.3038 50.4534H58.9757V51.6526H53.5343C53.8233 52.6838 54.2452 53.3714 54.2843 53.4417L53.2648 54.0706C53.2335 54.012 49.8351 48.3909 54.714 43.8716C55.0421 43.563 55.3624 43.27 55.6632 42.981C55.964 42.6919 56.253 42.4224 56.5421 42.1607C56.8312 41.8989 57.1202 41.6216 57.421 41.3326C57.7218 41.0435 58.0304 40.7544 58.3624 40.4536C58.671 40.1646 58.9327 39.8755 59.171 39.5747H56.1124V38.3755H59.964C60.175 37.9537 60.3234 37.5474 60.4328 37.1372H54.8117V35.938H60.632C60.6515 35.5279 60.6437 35.1294 60.6007 34.7583H54.921V33.5591H60.3624C60.0734 32.5279 59.6515 31.8403 59.6124 31.77L60.6319 31.1411V31.1333ZM54.7139 41.3323C49.835 36.8206 53.2256 31.1913 53.2647 31.1333L54.2842 31.7622C54.1631 31.9614 51.3858 36.6138 55.5342 40.4419C55.8233 40.7114 56.1045 40.9732 56.3741 41.231L55.5537 42.1021C55.2842 41.8521 55.0147 41.5903 54.7256 41.3208L54.7139 41.3323ZM59.1827 43.8714C64.0616 48.3909 60.671 54.0124 60.6319 54.0704L59.6124 53.4415C59.7335 53.2423 62.5108 48.5899 58.3624 44.7618C58.1124 44.5313 57.7609 44.2032 57.5226 43.9805L58.3429 43.1094C58.5734 43.3282 58.921 43.6602 59.171 43.8907L59.1827 43.8714Z" fill="#1C7153"/>
</svg>
