<svg width="960" height="540" viewBox="0 0 960 540" fill="none" xmlns="http://www.w3.org/2000/svg">
<path d="M0 104L87 158L175 125L262 131L349 163H436L524 168L611 174L698 136L785 104L873 125L960 147V0H873H785H698H611H524H436H349H262H175H87H0V104Z" fill="#819288"/>
<path d="M0 185L87 195L175 212L262 217L349 206L436 239L524 233L611 222L698 185L785 147L873 190H960V145L873 123L785 102L698 134L611 172L524 166L436 161H349L262 129L175 123L87 156L0 102V185Z" fill="#8A9C91"/>
<path d="M0 228L87 249L175 287L262 309L349 303L436 336L524 298L611 282L698 260L785 255L873 287L960 255V188H873L785 145L698 183L611 220L524 231L436 237L349 204L262 215L175 210L87 193L0 183V228Z" fill="#A0B2A7"/>
<path d="M0 357L87 395L175 347L262 368L349 428L436 449L524 363L611 390L698 352L785 379L873 368L960 401V253L873 285L785 253L698 258L611 280L524 296L436 334L349 301L262 307L175 285L87 247L0 226V357Z" fill="#B3C7BC"/>
<path d="M0 541H87H175H262H349H436H524H611H698H785H873H960V399L873 366L785 377L698 350L611 388L524 361L436 447L349 426L262 366L175 345L87 393L0 355V541Z" fill="#C8D4D2"/>
</svg>
